<svg width="1260" height="498" viewBox="0 0 1260 498" fill="none" xmlns="http://www.w3.org/2000/svg">
<rect x="-0.000488281" width="1260" height="498" rx="50" fill="#F4C10F"/>
<path d="M257.894 314L279.627 183.091H315.167L298.292 285.364H351.218L346.36 314H257.894ZM361.237 314L377.601 215.818H412.885L396.521 314H361.237ZM396.777 205.591C392.004 205.591 388.148 204.014 385.207 200.861C382.267 197.665 381.18 193.872 381.947 189.483C382.715 185.009 385.058 181.216 388.979 178.105C392.899 174.952 397.246 173.375 402.019 173.375C406.834 173.375 410.669 174.952 413.524 178.105C416.379 181.216 417.445 185.009 416.72 189.483C416.038 193.872 413.737 197.665 409.817 200.861C405.939 204.014 401.592 205.591 396.777 205.591ZM450.039 290.733L457.198 248.801H461.8L491.204 215.818H530.834L482.51 267.21H472.539L450.039 290.733ZM414.499 314L436.232 183.091H471.516L449.783 314H414.499ZM475.096 314L458.988 275.136L486.346 250.08L515.493 314H475.096ZM566.406 315.79C555.923 315.79 547.23 313.787 540.326 309.781C533.423 305.733 528.565 299.937 525.753 292.395C522.94 284.81 522.429 275.733 524.218 265.165C525.923 255.023 529.439 246.159 534.765 238.574C540.135 230.989 546.889 225.087 555.028 220.868C563.21 216.649 572.372 214.54 582.514 214.54C589.929 214.54 596.427 215.69 602.01 217.991C607.635 220.293 612.216 223.638 615.753 228.027C619.289 232.416 621.676 237.722 622.912 243.943C624.19 250.122 624.19 257.111 622.912 264.909L621.633 273.091H533.934L537.003 253.659H592.23C592.656 250.847 592.379 248.375 591.399 246.244C590.461 244.071 588.949 242.388 586.86 241.195C584.815 239.959 582.343 239.341 579.446 239.341C576.548 239.341 573.821 239.959 571.264 241.195C568.75 242.43 566.598 244.156 564.808 246.372C563.061 248.588 561.889 251.187 561.292 254.17L557.457 274.625C556.946 277.778 557.137 280.591 558.032 283.062C558.927 285.534 560.483 287.473 562.699 288.879C564.914 290.286 567.77 290.989 571.264 290.989C573.65 290.989 575.909 290.669 578.039 290.03C580.213 289.348 582.13 288.368 583.792 287.089C585.497 285.768 586.86 284.17 587.883 282.295H620.099C617.798 289.114 614.155 295.037 609.169 300.065C604.226 305.051 598.132 308.929 590.887 311.699C583.686 314.426 575.525 315.79 566.406 315.79Z" fill="white"/>
<rect x="811.886" y="209.053" width="180" height="80" rx="24" transform="rotate(35 811.886 209.053)" fill="white"/>
<rect x="848" y="329.746" width="300" height="80" rx="24" transform="rotate(-55 848 329.746)" fill="white"/>
</svg>
