<svg width="1260" height="498" viewBox="0 0 1260 498" fill="none" xmlns="http://www.w3.org/2000/svg">
<rect x="-0.000488281" width="1260" height="498" rx="50" fill="#F4C10F"/>
<path d="M199.886 314L221.619 183.091H257.159L240.284 285.364H293.21L288.352 314H199.886ZM303.229 314L319.593 215.818H354.877L338.514 314H303.229ZM338.769 205.591C333.996 205.591 330.14 204.014 327.2 200.861C324.259 197.665 323.173 193.872 323.94 189.483C324.707 185.009 327.05 181.216 330.971 178.105C334.891 174.952 339.238 173.375 344.011 173.375C348.826 173.375 352.661 174.952 355.516 178.105C358.371 181.216 359.437 185.009 358.712 189.483C358.031 193.872 355.729 197.665 351.809 200.861C347.931 204.014 343.585 205.591 338.769 205.591ZM392.031 290.733L399.19 248.801H403.792L433.196 215.818H472.826L424.503 267.21H414.531L392.031 290.733ZM356.491 314L378.224 183.091H413.508L391.775 314H356.491ZM417.088 314L400.98 275.136L428.338 250.08L457.485 314H417.088ZM508.398 315.79C497.915 315.79 489.222 313.787 482.319 309.781C475.415 305.733 470.557 299.937 467.745 292.395C464.932 284.81 464.421 275.733 466.211 265.165C467.915 255.023 471.431 246.159 476.758 238.574C482.127 230.989 488.881 225.087 497.02 220.868C505.202 216.649 514.364 214.54 524.506 214.54C531.921 214.54 538.419 215.69 544.002 217.991C549.627 220.293 554.208 223.638 557.745 228.027C561.282 232.416 563.668 237.722 564.904 243.943C566.182 250.122 566.182 257.111 564.904 264.909L563.625 273.091H475.927L478.995 253.659H534.222C534.648 250.847 534.371 248.375 533.391 246.244C532.454 244.071 530.941 242.388 528.853 241.195C526.807 239.959 524.336 239.341 521.438 239.341C518.54 239.341 515.813 239.959 513.256 241.195C510.742 242.43 508.59 244.156 506.8 246.372C505.053 248.588 503.881 251.187 503.284 254.17L499.449 274.625C498.938 277.778 499.13 280.591 500.025 283.062C500.919 285.534 502.475 287.473 504.691 288.879C506.907 290.286 509.762 290.989 513.256 290.989C515.642 290.989 517.901 290.669 520.032 290.03C522.205 289.348 524.123 288.368 525.784 287.089C527.489 285.768 528.853 284.17 529.875 282.295H562.091C559.79 289.114 556.147 295.037 551.161 300.065C546.218 305.051 540.124 308.929 532.88 311.699C525.678 314.426 517.517 315.79 508.398 315.79ZM606.532 315.278C599.543 315.278 593.407 313.446 588.123 309.781C582.881 306.116 579.11 300.555 576.809 293.098C574.55 285.641 574.359 276.244 576.234 264.909C578.194 253.062 581.624 243.432 586.525 236.017C591.468 228.602 597.136 223.169 603.528 219.717C609.962 216.266 616.418 214.54 622.896 214.54C627.754 214.54 631.866 215.392 635.232 217.097C638.641 218.759 641.347 220.996 643.35 223.808C645.353 226.578 646.717 229.625 647.441 232.949H647.952L656.262 183.091H691.546L669.813 314H634.785L637.47 297.892H636.702C634.785 301.216 632.335 304.199 629.352 306.841C626.411 309.44 623.023 311.507 619.188 313.041C615.353 314.533 611.134 315.278 606.532 315.278ZM624.046 288.176C627.285 288.176 630.225 287.239 632.867 285.364C635.509 283.446 637.746 280.761 639.579 277.31C641.411 273.815 642.711 269.682 643.478 264.909C644.288 260.051 644.352 255.896 643.67 252.445C642.988 248.95 641.624 246.287 639.579 244.455C637.576 242.58 634.955 241.642 631.717 241.642C628.478 241.642 625.559 242.58 622.96 244.455C620.36 246.287 618.166 248.95 616.376 252.445C614.629 255.896 613.35 260.051 612.541 264.909C611.731 269.767 611.624 273.943 612.221 277.438C612.86 280.889 614.181 283.553 616.184 285.428C618.187 287.26 620.808 288.176 624.046 288.176Z" fill="#EC3434"/>
<rect x="811.886" y="209.053" width="180" height="80" rx="24" transform="rotate(35 811.886 209.053)" fill="#EC3434"/>
<path d="M867.66 343.511C856.802 335.909 854.163 320.944 861.766 310.086L1006.31 103.66C1013.91 92.8019 1028.87 90.1632 1039.73 97.7658L1065.95 116.12C1076.8 123.723 1079.44 138.688 1071.84 149.546L927.298 355.972C919.695 366.83 904.73 369.469 893.873 361.866L867.66 343.511Z" fill="#EC3434"/>
</svg>
