<svg width="1260" height="498" viewBox="0 0 1260 498" fill="none" xmlns="http://www.w3.org/2000/svg">
<rect width="1260" height="498" rx="50" fill="#F4C10F"/>
<path d="M1148.87 228.2C1164.9 237.431 1164.9 260.569 1148.87 269.8L916.974 403.292C900.974 412.502 881 400.953 881 382.492L881 115.508C881 97.0467 900.974 85.498 916.974 94.7085L1148.87 228.2Z" fill="white"/>
<path d="M162.909 211.727L167.767 183.091H281.545L276.687 211.727H237.312L220.437 314H185.409L202.284 211.727H162.909ZM263.503 314L279.867 215.818H314.128L311.06 234.483H312.083C315.023 227.58 318.709 222.53 323.141 219.334C327.573 216.138 332.41 214.54 337.651 214.54C339.185 214.54 340.655 214.668 342.062 214.923C343.51 215.136 344.938 215.435 346.344 215.818L341.231 245.989C339.569 245.349 337.502 244.902 335.03 244.646C332.559 244.348 330.364 244.199 328.447 244.199C325.037 244.199 321.841 244.987 318.858 246.564C315.918 248.098 313.404 250.271 311.316 253.084C309.27 255.854 307.907 259.114 307.225 262.864L298.787 314H263.503ZM364.082 315.534C357.861 315.534 352.513 314.511 348.038 312.466C343.606 310.378 340.368 307.224 338.322 303.006C336.319 298.744 335.872 293.375 336.98 286.898C337.875 281.528 339.558 276.947 342.03 273.155C344.501 269.362 347.569 266.251 351.234 263.822C354.899 261.393 359.011 259.54 363.571 258.261C368.173 256.94 373.031 256.088 378.145 255.705C383.684 255.278 388.18 254.746 391.632 254.107C395.084 253.467 397.662 252.594 399.366 251.486C401.071 250.378 402.094 248.886 402.434 247.011V246.756C402.818 244.199 402.136 242.239 400.389 240.875C398.684 239.511 396.298 238.83 393.23 238.83C389.906 238.83 387.03 239.554 384.601 241.003C382.214 242.452 380.574 244.71 379.679 247.778H347.207C348.571 241.812 351.362 236.315 355.581 231.287C359.842 226.216 365.488 222.168 372.52 219.142C379.594 216.074 388.031 214.54 397.832 214.54C404.821 214.54 410.957 215.371 416.241 217.033C421.525 218.652 425.893 220.932 429.345 223.872C432.839 226.77 435.29 230.179 436.696 234.099C438.145 237.977 438.486 242.196 437.719 246.756L426.469 314H393.486L395.787 300.193H395.02C392.463 303.858 389.586 306.82 386.39 309.078C383.237 311.337 379.785 312.977 376.035 314C372.328 315.023 368.344 315.534 364.082 315.534ZM379.423 293.29C382.065 293.29 384.665 292.736 387.221 291.628C389.778 290.52 391.973 288.922 393.805 286.834C395.638 284.746 396.809 282.21 397.321 279.227L398.599 271.045C397.662 271.429 396.618 271.791 395.467 272.132C394.359 272.43 393.187 272.729 391.952 273.027C390.758 273.325 389.48 273.602 388.116 273.858C386.795 274.114 385.432 274.369 384.025 274.625C381.213 275.051 378.848 275.754 376.93 276.734C375.013 277.672 373.521 278.844 372.456 280.25C371.39 281.614 370.73 283.148 370.474 284.852C370.091 287.537 370.709 289.625 372.328 291.116C373.99 292.565 376.355 293.29 379.423 293.29ZM443.328 314L459.691 215.818H494.975L478.612 314H443.328ZM478.867 205.591C474.095 205.591 470.238 204.014 467.298 200.861C464.357 197.665 463.271 193.872 464.038 189.483C464.805 185.009 467.149 181.216 471.069 178.105C474.99 174.952 479.336 173.375 484.109 173.375C488.924 173.375 492.759 174.952 495.615 178.105C498.47 181.216 499.535 185.009 498.811 189.483C498.129 193.872 495.828 197.665 491.907 200.861C488.029 204.014 483.683 205.591 478.867 205.591ZM553.606 183.091L531.873 314H496.589L518.322 183.091H553.606ZM596.641 315.79C586.158 315.79 577.465 313.787 570.561 309.781C563.658 305.733 558.8 299.937 555.987 292.395C553.175 284.81 552.664 275.733 554.453 265.165C556.158 255.023 559.673 246.159 565 238.574C570.369 230.989 577.124 225.087 585.263 220.868C593.445 216.649 602.607 214.54 612.749 214.54C620.164 214.54 626.662 215.69 632.244 217.991C637.869 220.293 642.45 223.638 645.987 228.027C649.524 232.416 651.911 237.722 653.146 243.943C654.425 250.122 654.425 257.111 653.146 264.909L651.868 273.091H564.169L567.237 253.659H622.465C622.891 250.847 622.614 248.375 621.634 246.244C620.696 244.071 619.183 242.388 617.095 241.195C615.05 239.959 612.578 239.341 609.681 239.341C606.783 239.341 604.056 239.959 601.499 241.195C598.985 242.43 596.833 244.156 595.043 246.372C593.296 248.588 592.124 251.187 591.527 254.17L587.692 274.625C587.181 277.778 587.372 280.591 588.267 283.062C589.162 285.534 590.718 287.473 592.933 288.879C595.149 290.286 598.004 290.989 601.499 290.989C603.885 290.989 606.144 290.669 608.274 290.03C610.448 289.348 612.365 288.368 614.027 287.089C615.732 285.768 617.095 284.17 618.118 282.295H650.334C648.033 289.114 644.389 295.037 639.404 300.065C634.46 305.051 628.367 308.929 621.122 311.699C613.921 314.426 605.76 315.79 596.641 315.79ZM659.363 314L675.726 215.818H709.988L706.92 234.483H707.942C710.883 227.58 714.569 222.53 719.001 219.334C723.432 216.138 728.269 214.54 733.51 214.54C735.045 214.54 736.515 214.668 737.921 214.923C739.37 215.136 740.797 215.435 742.204 215.818L737.09 245.989C735.428 245.349 733.361 244.902 730.89 244.646C728.418 244.348 726.224 244.199 724.306 244.199C720.897 244.199 717.701 244.987 714.718 246.564C711.778 248.098 709.263 250.271 707.175 253.084C705.13 255.854 703.766 259.114 703.084 262.864L694.647 314H659.363Z" fill="white"/>
</svg>
